<svg xmlns="http://www.w3.org/2000/svg" viewBox="0 0 24 24" width="24" height="24" color="#000"><g transform="translate(2.000 2.618) scale(0.009510)" style="fill:currentColor;stroke:none;fill-rule:evenodd;clip-rule:evenodd"><g><path d="M1474,988L1618,1021C1620,1021 1622,1022 1623,1023L1674,1051L1805,1037C1808,1037 1812,1037 1816,1039L2097,1167C2105,1171 2110,1180 2109,1189L2077,1411C2076,1415 2074,1419 2072,1422L2019,1482L1994,1609C1992,1617 1987,1623 1979,1625L867,1972C863,1973 858,1973 854,1972L641,1897C637,1895 634,1893 631,1890L601,1851L453,1842C446,1842 440,1838 436,1832L329,1668C328,1666 327,1663 326,1660L300,1471C299,1464 301,1458 306,1453L348,1409L343,1322C343,1320 343,1317 344,1314L368,1240L223,1128C219,1124 216,1120 215,1114L205,1046L85,981C79,978 75,972 74,966L6,452C5,445 7,439 12,434L116,326L116,246C116,241 118,236 121,232L239,101C243,97 248,95 253,94L1347,-1C1350,-1 1353,-1 1356,0L1438,27C1441,28 1444,30 1447,33L1537,132C1540,136 1542,141 1542,146L1543,200L1642,284C1647,288 1649,294 1649,301L1626,812C1626,819 1622,825 1616,829L1525,884L1522,915C1522,919 1520,922 1518,925L1474,988ZM389,1312L673,1652L891,1709L1987,1354C1998,1350 2009,1356 2013,1368C2017,1379 2011,1390 1999,1394L1788,1463L1758,1616C1757,1620 1755,1624 1751,1627L1734,1643C1728,1649 1719,1651 1711,1647C1703,1643 1698,1635 1699,1626L1710,1488L1383,1594L1356,1744C1355,1749 1352,1754 1347,1757L1322,1775C1316,1780 1307,1780 1299,1776C1292,1772 1288,1764 1289,1756L1305,1619L898,1751C895,1752 891,1752 887,1751L680,1698L664,1860L861,1930L1955,1589L1978,1468C1979,1464 1981,1461 1983,1458L2036,1399L2065,1199L1804,1079L1671,1094C1667,1094 1662,1093 1659,1091L1605,1061L1465,1029L1433,1039C1425,1042 1415,1039 1410,1031C1405,1024 1405,1014 1410,1007L1481,906L1484,869C1485,862 1488,856 1494,853L1585,799L1607,309L1508,226C1504,222 1501,216 1501,210L1500,154L1419,65L1347,41L265,135L158,254L158,334C158,339 156,345 152,349L49,456L114,950L234,1015C240,1018 244,1023 245,1030L255,1099L406,1215C413,1221 416,1230 413,1239L389,1312ZM626,1815L639,1678L639,1678L468,1677C456,1677 447,1668 447,1656C447,1644 456,1635 468,1635L604,1636L389,1377L391,1416C391,1422 389,1427 385,1432L343,1475L367,1649L466,1801L613,1810C618,1810 623,1812 626,1815ZM1494,349C1494,349 1494,350 1494,350L1538,386C1543,390 1546,396 1546,403L1533,702C1532,713 1523,722 1511,722C1500,722 1491,712 1491,701C1491,701 1494,519 1494,442C1493,431 1493,419 1493,414C1485,400 1470,385 1467,381L1444,362C1435,355 1433,342 1441,333C1448,324 1461,322 1470,330L1494,349ZM359,818C360,818 362,818 363,818L1424,657C1435,656 1446,663 1448,675C1450,686 1442,697 1430,699L385,874L386,1095C386,1106 377,1115 366,1116C355,1116 345,1108 344,1097L322,844C321,833 329,823 340,821L359,818ZM832,1213L909,1251L1176,1203L1360,1162C1372,1159 1383,1167 1385,1178C1388,1189 1381,1200 1370,1203L1185,1244C1185,1244 1185,1244 1185,1245L910,1306C904,1308 898,1307 894,1304L810,1249C810,1249 810,1249 810,1249L776,1227C766,1220 763,1207 769,1198C776,1188 789,1185 798,1191L832,1213ZM1207,1512L1640,1383L1603,1360C1596,1355 1592,1347 1593,1339C1594,1331 1600,1324 1608,1322L1862,1241C1872,1238 1883,1243 1888,1253C1892,1264 1887,1275 1877,1280L1696,1366L1693,1383C1693,1384 1693,1384 1693,1384L1689,1401C1689,1401 1689,1401 1689,1401L1684,1426C1682,1434 1676,1440 1669,1442L1228,1574C1221,1576 1213,1575 1208,1570L1130,1500L786,1606L773,1638C769,1648 756,1653 746,1649C742,1648 739,1645 737,1643C727,1640 721,1631 722,1621L724,1595C725,1587 731,1579 739,1577L1129,1456C1136,1454 1144,1455 1149,1460L1207,1512ZM282,463C283,462 284,461 286,460C289,459 293,458 296,458C299,458 303,459 306,461C307,462 309,463 310,465C312,466 313,468 314,470C315,473 316,477 316,480C316,483 315,487 313,490C312,491 311,492 310,493L248,561L288,901C290,913 281,923 270,924C270,924 270,924 270,924C267,929 261,932 255,933C244,934 233,926 232,914L195,542C194,535 197,528 203,523L282,463Z"/><path d="M1214,1797L1240,1770L1245,1654L1227,1637C1225,1634 1225,1631 1227,1628C1230,1626 1233,1626 1236,1628L1252,1645L1311,1613C1314,1611 1318,1612 1319,1615C1321,1618 1320,1622 1317,1623L1257,1656L1252,1766L1301,1760C1302,1760 1303,1760 1304,1760L1320,1765C1322,1766 1324,1768 1324,1771C1324,1774 1322,1776 1320,1777C1320,1777 1216,1812 1216,1812C1214,1812 1211,1812 1210,1810C1210,1810 1210,1810 1209,1810C1209,1810 1195,1794 1195,1794C1194,1793 1194,1791 1194,1790L1201,1639C1201,1635 1204,1633 1207,1633C1211,1633 1213,1636 1213,1639L1206,1788L1214,1797ZM1236,1792L1293,1773L1249,1779L1236,1792ZM1555,1310C1556,1310 1556,1310 1557,1310L1601,1332L1645,1326C1648,1326 1650,1327 1651,1330C1652,1333 1651,1336 1649,1337L1610,1360C1608,1361 1605,1361 1603,1360L1368,1187C1365,1185 1364,1182 1366,1179C1368,1176 1372,1176 1375,1178L1555,1310ZM1602,1344L1607,1348L1618,1342L1602,1344ZM1613,1617C1613,1617 1612,1618 1612,1618L1358,1700C1355,1701 1351,1699 1350,1696C1349,1693 1351,1689 1354,1688L1604,1608L1610,1507C1610,1503 1613,1501 1616,1501C1620,1501 1622,1504 1622,1507L1616,1605C1628,1612 1634,1619 1638,1627C1641,1634 1641,1641 1640,1647L1646,1643L1651,1523L1630,1509C1627,1507 1626,1503 1628,1501C1630,1498 1634,1497 1636,1499L1657,1513L1715,1484C1718,1482 1722,1483 1723,1486C1725,1489 1724,1493 1721,1494L1663,1524L1658,1639L1713,1628C1714,1627 1716,1628 1717,1629L1729,1637C1731,1638 1732,1641 1732,1643C1732,1645 1730,1647 1728,1648L1624,1681C1622,1681 1620,1681 1618,1680C1616,1678 1616,1676 1616,1674L1616,1672L1341,1758C1338,1759 1334,1757 1333,1754C1332,1751 1334,1747 1337,1746L1625,1657C1627,1653 1631,1642 1627,1631C1624,1626 1620,1621 1613,1617ZM1654,1652L1638,1664L1713,1640L1712,1640L1654,1652ZM371,1220C368,1221 365,1219 364,1215C363,1212 366,1209 369,1208L1434,1001C1438,1000 1441,1002 1441,1006C1442,1009 1440,1012 1437,1013L371,1220ZM389,1255C386,1255 382,1253 382,1250C381,1247 383,1244 386,1243L1510,1012C1513,1011 1516,1013 1517,1016C1517,1020 1515,1023 1512,1024L389,1255ZM243,130C241,128 240,124 242,121C244,119 248,118 251,120L310,166C312,168 313,172 311,175C309,177 305,178 302,176L243,130ZM140,258C136,257 134,254 135,251C136,247 139,245 142,246L218,264C222,265 224,268 223,271C222,275 219,277 216,276L140,258ZM138,355C135,353 133,350 134,347C136,344 139,342 142,343L208,368C211,370 213,373 212,376C210,379 207,381 204,380L138,355ZM30,460C27,458 25,455 26,452C28,449 31,447 34,448L106,475C109,477 111,480 110,483C108,486 105,488 102,487L30,460ZM558,1389C555,1390 552,1388 551,1384C550,1381 552,1378 556,1377L915,1289C918,1288 921,1290 922,1294C923,1297 921,1300 917,1301L558,1389ZM946,1295C943,1293 943,1289 946,1287C948,1284 952,1284 954,1287L1143,1461C1146,1463 1146,1467 1143,1469C1141,1472 1137,1472 1135,1469L946,1295Z"/><path d="M440,1272C441,1270 442,1268 444,1267C444,1267 444,1267 444,1267C444,1266 445,1266 446,1265L468,1253C469,1253 470,1252 471,1252L741,1197C741,1197 741,1197 741,1197L786,1188C792,1187 798,1191 799,1197C800,1202 797,1208 792,1209L817,1216C823,1218 826,1224 825,1230C823,1235 817,1239 811,1237L743,1219L477,1273L469,1278L753,1591C757,1595 757,1602 752,1606C748,1610 741,1610 737,1605L458,1299L454,1321L717,1625L853,1661L1123,1581L1124,1476C1124,1470 1129,1465 1135,1465C1141,1465 1146,1470 1146,1476L1146,1480C1148,1479 1150,1479 1153,1479C1159,1480 1163,1486 1162,1492L1148,1573L1225,1550C1231,1549 1237,1552 1239,1558C1240,1564 1237,1570 1231,1572L1137,1599C1137,1599 1137,1599 1137,1599L856,1683C854,1683 852,1683 850,1683L708,1646C706,1645 704,1644 703,1642L434,1331C431,1329 431,1325 431,1322L440,1273C440,1273 440,1272 440,1272ZM1641,1117L1929,1264C1930,1265 1930,1265 1931,1266L1960,1290C1964,1292 1965,1297 1963,1301L1946,1352C1945,1356 1943,1358 1939,1360L1638,1452C1632,1453 1626,1450 1624,1444C1623,1438 1626,1432 1632,1430L1843,1366L1859,1267L1872,1269L1877,1262L1635,1139L1367,1204C1364,1204 1360,1204 1358,1202C1355,1200 1354,1198 1353,1195L1350,1175C1349,1169 1353,1163 1359,1162L1634,1116C1637,1116 1639,1116 1641,1117ZM1897,1273L1876,1299L1867,1359L1927,1340L1940,1302L1918,1283L1897,1273ZM331,1462L413,1376C417,1371 424,1371 428,1375C433,1379 433,1386 429,1391L344,1480L466,1645C467,1647 468,1649 468,1652L469,1669L470,1654C471,1648 477,1644 483,1644C489,1645 493,1651 492,1657L473,1813C472,1819 467,1823 461,1823C456,1823 451,1818 451,1812L446,1656L317,1509C313,1504 314,1497 318,1493C319,1492 320,1492 321,1491C321,1491 320,1491 319,1490C317,1487 316,1484 316,1480L312,1475C309,1470 310,1463 314,1459C319,1456 326,1457 330,1461L331,1462ZM203,364C203,364 203,363 203,362L208,266C208,264 209,261 211,259L301,166C303,164 305,163 308,163L1436,53C1442,52 1447,57 1448,63C1449,69 1444,74 1438,75L336,182L243,272L227,355L284,352L281,314C281,311 282,309 283,307L339,228C341,225 344,223 347,223L1403,122C1406,122 1409,123 1412,125L1458,170C1460,172 1461,175 1461,178L1460,219L1532,209C1538,208 1543,212 1544,218C1545,224 1541,230 1535,231L1460,241L1451,626C1451,632 1447,636 1442,637L335,805C332,805 329,805 327,803C325,801 323,798 323,795L286,374L221,378L115,483L178,989L296,1044L371,1034C377,1033 382,1038 383,1044C384,1050 379,1055 373,1056L295,1066C293,1066 291,1066 289,1065L163,1006C160,1004 158,1001 157,997L92,480C92,477 93,474 95,471L203,364ZM1438,232C1438,232 1438,231 1438,231L1439,183L1400,144L354,244L303,316C303,316 307,361 307,361L344,781L1429,617L1438,232ZM354,1094C354,1092 355,1090 357,1088C361,1083 368,1083 372,1087L437,1143L1372,957L1424,883L1426,677C1426,671 1431,666 1437,666C1443,666 1448,671 1448,677L1447,757L1504,683C1507,678 1514,677 1519,681C1523,684 1525,690 1523,694C1525,694 1527,696 1529,697C1533,702 1533,709 1529,713L1448,793C1447,793 1447,793 1447,794L1446,854L1537,840C1543,839 1549,843 1549,849C1550,855 1546,861 1540,862L1446,877L1446,887C1446,889 1445,892 1444,893L1387,973C1385,976 1383,977 1380,978L436,1166C435,1166 434,1166 433,1166C429,1168 425,1167 421,1165L351,1113C347,1109 346,1102 349,1097C350,1096 352,1094 354,1094ZM1993,1248L2072,1193C2077,1190 2084,1191 2087,1196C2090,1201 2089,1208 2084,1211L2038,1243L2000,1470C1999,1476 1993,1480 1987,1479C1981,1478 1977,1472 1978,1466L2005,1279L1997,1274C1996,1274 1994,1273 1993,1273L1654,1089C1648,1086 1646,1079 1649,1074C1652,1068 1659,1066 1664,1069L1993,1248ZM890,1726L890,1725C892,1720 898,1716 904,1717C910,1719 913,1725 912,1731L859,1951C857,1956 852,1960 846,1959C840,1958 836,1952 837,1946L869,1726C870,1720 875,1716 881,1717C886,1718 890,1721 890,1726ZM244,931C238,929 236,922 238,917C240,911 247,909 252,911L269,918L261,913C256,909 255,902 258,897C262,892 269,891 274,894L373,962C378,965 379,971 377,976C374,981 368,983 363,981L244,931Z"/></g></g></svg>
