<?xml version="1.0" encoding="UTF-8" standalone="no"?>
<!DOCTYPE svg PUBLIC "-//W3C//DTD SVG 1.1//EN" "http://www.w3.org/Graphics/SVG/1.1/DTD/svg11.dtd">
<svg width="100%" height="100%" viewBox="0 0 1666 2189" version="1.1" xmlns="http://www.w3.org/2000/svg" xmlns:xlink="http://www.w3.org/1999/xlink" xml:space="preserve" xmlns:serif="http://www.serif.com/" style="fill-rule:evenodd;clip-rule:evenodd;stroke-linejoin:round;stroke-miterlimit:2;">
    <path d="M146.5194,654.0841C148.1115,652.2434 150.0316,650.6326 152.2547,649.3453C155.3072,647.5778 158.6043,646.6094 161.9032,646.3753C165.2015,646.134 168.6033,646.6198 171.8776,647.9314L498.3432,778.7057L471.338,687.9124C470.4201,684.8266 470.1972,681.6981 470.5782,678.6951C470.9536,675.6914 471.9452,672.7158 473.5993,669.9539C475.0763,667.4877 476.9529,665.4069 479.097,663.7445C481.2389,662.0795 483.72,660.7773 486.4755,659.9578C489.5612,659.04 492.6897,658.817 495.6928,659.198C498.6965,659.5734 501.6721,660.565 504.434,662.2192L651.2139,750.1284L651.2139,668.7984C651.2139,656.3836 661.2781,646.3194 673.6928,646.3194L795.6343,646.3194C808.0491,646.3194 818.1133,656.3836 818.1133,668.7984L818.1133,835.38L833,848.5215L847.8867,835.38L847.8867,668.7984C847.8867,656.3836 857.9509,646.3194 870.3657,646.3194L993.2845,646.3194C1005.6993,646.3194 1015.7635,656.3836 1015.7635,668.7984L1015.7635,749.5422L1161.5661,662.2191C1169.5184,657.4564 1179.5787,658.0633 1186.9007,663.7475C1194.2226,669.4319 1197.3047,679.0277 1194.662,687.9124L1167.6568,778.7057L1494.1224,647.9314C1503.022,644.3664 1513.2031,646.8381 1519.4774,654.0868C1525.7518,661.3356 1526.7383,671.7659 1521.9343,680.0625L989.7027,1599.2306L993.2845,1599.2306C999.3097,1599.2306 1005.0826,1601.6494 1009.3082,1605.9443C1013.5339,1610.2392 1015.8585,1616.0507 1015.7605,1622.075L1013.8059,1742.2884C1013.766,1744.7386 1013.3258,1747.1656 1012.5027,1749.4737L867.8556,2155.0718C864.6633,2164.0233 856.1865,2170 846.6828,2170L819.3172,2170C809.8135,2170 801.3367,2164.0233 798.1444,2155.0718L653.4973,1749.4737C652.6742,1747.1656 652.234,1744.7386 652.1941,1742.2884L650.2395,1622.075C650.2375,1621.9532 650.2365,1621.8314 650.2365,1621.7096C650.2348,1609.4475 660.0895,1599.4312 672.35,1599.2336C672.4718,1599.2316 672.5936,1599.2306 672.7155,1599.2306L676.2973,1599.2306L144.0657,680.0625C142.2982,677.01 141.3299,673.7128 141.0958,670.414C140.8545,667.1157 141.3402,663.7138 142.6518,660.4395C143.6071,658.0548 144.926,655.9235 146.5194,654.0841ZM1015.7635,801.9465L1015.7635,972.7526C1015.7635,977.5428 1014.2333,982.2076 1011.3961,986.0671L878.4772,1166.8759L878.2905,1167.1262L855.4789,1197.27L855.479,1670.5733L1114.6334,799.2782C1114.8057,798.5767 1115.011,797.888 1115.2474,797.214L1135.0979,730.4756L1015.7635,801.9465ZM1153.2543,827.1282L908.6595,1649.4729L930.6184,1611.5497C930.9908,1610.8166 931.4024,1610.1064 931.8502,1609.4223L1450.4053,713.8741L1171.7014,825.5163C1169.0432,826.5811 1166.2061,827.1282 1163.3425,827.1282L1153.2543,827.1282ZM651.2139,802.5329L530.9022,730.476L550.7525,797.214C550.989,797.8879 551.1943,798.5767 551.3666,799.2783L810.521,1670.5733L810.5211,1189.7232C810.5211,1187.2219 810.9305,1184.8155 811.6859,1182.5674C812.4401,1180.3188 813.5658,1178.153 815.0752,1176.1584L848.4812,1132.0145L847.8867,907.61L833,894.8177L818.1133,907.61L818.1133,1100.7848C818.1133,1109.8151 812.7093,1117.9689 804.3925,1121.4874C796.0758,1125.0057 786.4609,1123.2057 779.9801,1116.917L658.0386,988.8849C653.6759,984.6514 651.2139,978.8316 651.2139,972.7526L651.2139,802.5329ZM810.5211,2055.9357L810.521,1831.0359L702.3296,1644.1885L695.5628,1644.1885L697.0859,1737.8576L810.5211,2055.9357ZM734.1498,1609.4223C734.5976,1610.1064 735.0092,1610.8166 735.3816,1611.5497L757.3405,1649.4729L512.7457,827.1282L502.6575,827.1282C499.7939,827.1282 496.9568,826.5811 494.2986,825.5163L215.5947,713.8741L734.1498,1609.4223ZM963.6704,1644.1885L855.479,1831.0359L855.4789,2055.9357L968.9141,1737.8576L970.4372,1644.1885L963.6704,1644.1885ZM117.6328,915.5242L151.9802,977.4573L218.4458,953.0226C226.914,949.9093 236.423,952.1609 242.5961,958.7409C248.7691,965.3209 250.4098,974.9541 246.7632,983.2066L213.1356,1059.3061L200.0132,1092.6822L193.3155,1112.4085L182.7991,1152.9582L176.197,1183.9882L171.6193,1213.9767L169.9865,1233.1172L169.629,1251.7068L171.7437,1282.0498L176.7798,1315.1568L181.5626,1337.3234L191.0254,1370.5837L198.5409,1391.4805L207.1191,1411.3118L211.5683,1420.2975L222.4637,1439.5247L242.4319,1469.197L265.2955,1498.2704L289.5214,1525.9032L312.9136,1549.8567L328.7717,1563.7212L355.7352,1584.2248L419.0488,1626.2626L455.102,1560.1281C458.8772,1553.2032 466.0056,1548.7633 473.8857,1548.4289C481.7658,1548.0946 489.2448,1551.9146 493.593,1558.4949L640.1947,1780.3522C644.8137,1787.3422 645.1619,1796.321 641.0982,1803.6479C637.0345,1810.9746 629.2333,1815.4334 620.8578,1815.2163L356.9747,1808.3749C349.1488,1808.172 341.9921,1803.9122 338.0825,1797.1299C334.1728,1790.3476 334.0732,1782.0197 337.8196,1775.1459L361.2914,1732.0809L320.1586,1710.0338C319.9461,1709.9199 319.7354,1709.8025 319.5266,1709.6818L286.3946,1690.5259C286.0323,1690.3163 285.6759,1690.0968 285.3258,1689.8673L251.021,1667.3884C250.5931,1667.1081 250.175,1666.8132 249.7672,1666.5043L227.1906,1649.4008C226.844,1649.1383 226.5051,1648.8657 226.1743,1648.5834L215.5213,1639.4941C215.3447,1639.3435 215.1704,1639.1901 214.9986,1639.0341L194.7675,1620.66C194.5551,1620.467 194.3463,1620.2699 194.1414,1620.0689L173.9103,1600.2288C173.6644,1599.9877 173.4241,1599.7409 173.1895,1599.4887L143.2828,1567.3341C142.9495,1566.9758 142.6281,1566.6068 142.3189,1566.2275L113.8782,1531.3362C113.5393,1530.9205 113.2154,1530.4928 112.9071,1530.0539L95.6081,1505.4248C95.4182,1505.1544 95.2343,1504.8798 95.0564,1504.6013L86.9444,1491.8958C86.7186,1491.542 86.5027,1491.1819 86.2969,1490.8161L71.7345,1464.9165C71.4752,1464.4552 71.2321,1463.985 71.006,1463.5065L58.3005,1436.6295C58.1264,1436.2611 57.9622,1435.8881 57.8084,1435.5107L46.5689,1407.9496C46.3679,1407.4566 46.1844,1406.9567 46.0189,1406.4507L32.2383,1364.3272C32.1009,1363.9068 31.9758,1363.4826 31.8633,1363.0549L24.4355,1334.8096C24.3139,1334.3472 24.2071,1333.8811 24.1152,1333.412L15.9055,1291.4839C15.8117,1291.0048 15.7335,1290.5228 15.6712,1290.0386L12.055,1261.9888C11.9851,1261.447 11.9351,1260.9028 11.9049,1260.3572L10.3411,1232.112C10.3137,1231.6191 10.3027,1231.1255 10.308,1230.632L10.6012,1202.8754C10.6063,1202.3904 10.6271,1201.9057 10.6635,1201.4221L13.6933,1161.2532C13.7266,1160.8115 13.7731,1160.3709 13.8324,1159.932L19.0123,1121.6201C19.0605,1121.2635 19.1173,1120.9081 19.1826,1120.5542L28.4673,1070.221C28.5624,1069.7056 28.6754,1069.1938 28.8063,1068.6863L36.0386,1040.6365C36.1306,1040.28 36.2313,1039.9258 36.3405,1039.5743L44.9412,1011.9154C45.0164,1011.6733 45.0958,1011.4326 45.1792,1011.1931L72.7895,931.9594L76.4716,919.8747C79.1015,911.243 86.6382,905.0206 95.6118,904.072C104.5853,903.1236 113.2563,907.633 117.6328,915.5242ZM1589.5284,919.8747L1593.2105,931.9594L1620.8208,1011.1931C1620.9042,1011.4326 1620.9836,1011.6733 1621.0588,1011.9154L1629.6595,1039.5743C1629.7687,1039.9258 1629.8694,1040.28 1629.9614,1040.6365L1637.1937,1068.6863C1637.3246,1069.1938 1637.4376,1069.7056 1637.5327,1070.221L1646.8174,1120.5542C1646.8827,1120.9081 1646.9395,1121.2635 1646.9877,1121.6201L1652.1676,1159.932C1652.2269,1160.3709 1652.2734,1160.8115 1652.3067,1161.2532L1655.3365,1201.4221C1655.3729,1201.9057 1655.3937,1202.3904 1655.3988,1202.8754L1655.692,1230.632C1655.6973,1231.1255 1655.6863,1231.6191 1655.6589,1232.112L1654.0951,1260.3572C1654.0649,1260.9028 1654.0149,1261.447 1653.945,1261.9888L1650.3288,1290.0386C1650.2665,1290.5228 1650.1883,1291.0048 1650.0945,1291.4839L1641.8848,1333.412C1641.7929,1333.8811 1641.6861,1334.3472 1641.5645,1334.8096L1634.1367,1363.0549C1634.0242,1363.4826 1633.8991,1363.9068 1633.7617,1364.3272L1619.9811,1406.4507C1619.8156,1406.9567 1619.6321,1407.4566 1619.4311,1407.9496L1608.1916,1435.5107C1608.0378,1435.8881 1607.8736,1436.2611 1607.6995,1436.6295L1594.994,1463.5065C1594.7679,1463.985 1594.5248,1464.4552 1594.2655,1464.9165L1579.7031,1490.8161C1579.4973,1491.1819 1579.2814,1491.542 1579.0556,1491.8958L1570.9436,1504.6013C1570.7657,1504.8798 1570.5818,1505.1544 1570.3919,1505.4248L1553.0929,1530.0539C1552.7846,1530.4928 1552.4607,1530.9205 1552.1218,1531.3362L1523.6811,1566.2275C1523.3719,1566.6068 1523.0505,1566.9758 1522.7172,1567.3341L1492.8105,1599.4887C1492.5759,1599.7409 1492.3356,1599.9877 1492.0897,1600.2288L1471.8586,1620.0689C1471.6537,1620.2699 1471.4449,1620.467 1471.2325,1620.66L1451.0014,1639.0341C1450.8296,1639.1901 1450.6553,1639.3435 1450.4787,1639.4941L1439.8257,1648.5834C1439.4949,1648.8657 1439.156,1649.1383 1438.8094,1649.4008L1416.2328,1666.5043C1415.825,1666.8132 1415.4069,1667.1081 1414.979,1667.3884L1380.6742,1689.8673C1380.3241,1690.0968 1379.9677,1690.3163 1379.6054,1690.5259L1346.4734,1709.6818C1346.2646,1709.8025 1346.0539,1709.9199 1345.8414,1710.0338L1304.7086,1732.0809L1328.1804,1775.1459C1331.9268,1782.0197 1331.8272,1790.3476 1327.9175,1797.1299C1324.0079,1803.9122 1316.8512,1808.172 1309.0253,1808.3749L1045.1422,1815.2163C1036.7667,1815.4334 1028.9655,1810.9746 1024.9018,1803.6479C1020.8381,1796.321 1021.1863,1787.3422 1025.8053,1780.3522L1172.407,1558.4949C1176.7552,1551.9146 1184.2342,1548.0946 1192.1143,1548.4289C1199.9944,1548.7633 1207.1228,1553.2032 1210.898,1560.1281L1246.9512,1626.2626L1310.2648,1584.2248L1337.2283,1563.7212L1353.0864,1549.8567L1376.4786,1525.9032L1400.7045,1498.2704L1423.5681,1469.197L1443.5363,1439.5247L1454.4317,1420.2975L1458.8809,1411.3118L1467.4591,1391.4805L1474.9746,1370.5837L1484.4374,1337.3234L1489.2202,1315.1567L1494.2563,1282.0498L1496.371,1251.7068L1496.0135,1233.1172L1494.3807,1213.9767L1489.803,1183.9882L1483.2009,1152.9582L1472.6845,1112.4085L1465.9868,1092.6822L1452.8644,1059.3061L1419.2368,983.2066C1415.5902,974.9541 1417.2309,965.3209 1423.4039,958.7409C1429.577,952.1609 1439.086,949.9093 1447.5542,953.0226L1514.0198,977.4573L1548.3672,915.5242C1552.7437,907.633 1561.4147,903.1236 1570.3882,904.072C1579.3618,905.0206 1586.8985,911.243 1589.5284,919.8747ZM567.156,593.3505L429.3503,139.8625C426.3228,129.8994 430.534,119.1612 439.5272,113.9124C448.5206,108.6636 459.9413,110.2784 467.1271,117.8146L667.4827,327.9437C671.1602,331.8005 673.3478,336.8384 673.6554,342.1586L682.2044,490.0575L721.5827,490.0575L721.5827,338.5691L690.3077,338.5691C682.4607,338.5691 675.1815,334.4771 671.1032,327.7731C667.0249,321.0692 666.7376,312.7236 670.3455,305.7551L813.0378,30.1439C816.9,22.6839 824.5995,18 833,18C841.4005,18 849.1,22.6839 852.9622,30.1439L995.6545,305.7551C999.2624,312.7236 998.9751,321.0692 994.8968,327.7731C990.8185,334.4771 983.5393,338.5691 975.6923,338.5691L944.4173,338.5691L944.4173,490.0575L983.7956,490.0575L992.3446,342.1586C992.6522,336.8384 994.8398,331.8005 998.5173,327.9437L1198.8729,117.8146C1206.0587,110.2784 1217.4794,108.6636 1226.4728,113.9124C1235.466,119.1612 1239.6772,129.8994 1236.6497,139.8625L1098.844,593.3505C1095.9663,602.8202 1087.2336,609.2936 1077.3362,609.2936L588.6638,609.2936C578.7664,609.2936 570.0337,602.8202 567.156,593.3505ZM605.3268,564.3357L1060.6732,564.3357L1166.1285,217.3055L1036.7513,352.9938L1027.4542,513.8337C1026.7668,525.7247 1016.9236,535.0154 1005.0127,535.0154L921.9384,535.0154C909.5237,535.0154 899.4594,524.9512 899.4594,512.5365L899.4594,316.0902C899.4594,303.6754 909.5237,293.6112 921.9384,293.6112L938.7414,293.6112L833,89.3711L727.2586,293.6112L744.0616,293.6112C756.4763,293.6112 766.5406,303.6754 766.5406,316.0902L766.5406,512.5365C766.5406,524.9512 756.4763,535.0154 744.0616,535.0154L660.9873,535.0154C649.0764,535.0154 639.2332,525.7247 638.5458,513.8337L629.2487,352.9938L499.8715,217.3055L605.3268,564.3357Z"/>
</svg>
