<?xml version="1.0" encoding="UTF-8" standalone="no"?>
<!DOCTYPE svg PUBLIC "-//W3C//DTD SVG 1.1//EN" "http://www.w3.org/Graphics/SVG/1.1/DTD/svg11.dtd">
<svg width="100%" height="100%" viewBox="0 0 1890 1822" version="1.1" xmlns="http://www.w3.org/2000/svg" xmlns:xlink="http://www.w3.org/1999/xlink" xml:space="preserve" xmlns:serif="http://www.serif.com/" style="fill-rule:evenodd;clip-rule:evenodd;stroke-linejoin:round;stroke-miterlimit:2;">
    <path d="M547.7656,346.0235L937.2166,222.6613C939.3522,221.9849 941.5164,221.6681 943.6435,221.6771C945.7706,221.6681 947.9348,221.9849 950.0704,222.6613L1339.5221,346.0237L1475.0071,231.5841C1480.043,227.3305 1486.784,225.6883 1493.212,227.1492L1593.0467,249.8389L1691.1632,167.5208L1647.2222,63.8201C1644.7532,57.9932 1645.0435,51.3635 1648.0126,45.7747L1665.0126,13.7747C1669.1827,5.9252 1677.843,1.5511 1686.6355,2.8537L1713.6355,6.8537C1718.5064,7.5753 1722.9689,9.9857 1726.243,13.6635L1789.6428,84.8797L1821.1366,72.9821C1827.8576,70.443 1835.4103,71.5162 1841.158,75.827L1877.158,102.827C1882.4459,106.7929 1885.558,113.0171 1885.558,119.627L1885.558,147.627C1885.558,153.0275 1883.4774,158.2205 1879.7485,162.127L1864.558,178.0408L1864.558,209.627C1864.558,215.9163 1861.7391,221.8746 1856.8765,225.8633L1507.558,512.4053L1507.558,644.45L1548.8239,628.1031C1555.2909,625.5413 1562.6068,626.348 1568.3602,630.2573C1574.1136,634.1665 1577.558,640.6711 1577.558,647.627L1577.558,1058.627C1577.558,1065.6599 1574.0375,1072.2259 1568.1798,1076.118C1562.322,1080.0101 1554.9049,1080.7116 1548.4213,1077.9866L1506.9454,1060.5547C1506.9352,1060.8493 1506.9188,1061.1437 1506.8961,1061.4376L1505.1961,1083.5376C1505.1691,1083.8894 1505.1332,1084.2403 1505.0884,1084.5903L1502.2884,1106.4903C1502.2435,1106.842 1502.1896,1107.1926 1502.1268,1107.5417L1498.2268,1129.2417C1498.1641,1129.5908 1498.0925,1129.9383 1498.0122,1130.2838L1493.0122,1151.7838C1492.946,1152.0683 1492.8739,1152.3513 1492.796,1152.6328L1486.896,1173.9328C1486.8103,1174.242 1486.7176,1174.5492 1486.6179,1174.8542L1479.7179,1195.9542C1479.6283,1196.2279 1479.5332,1196.4998 1479.4325,1196.7696L1474.8366,1209.0843C1478.5832,1221.9506 1487.6589,1251.7012 1498.044,1275.518C1502.7289,1286.2622 1507.154,1295.8388 1511.919,1300.3051C1518.4518,1306.428 1529.6664,1307.6155 1540.3219,1308.3106C1561.3343,1309.6815 1581.803,1305.9654 1581.803,1305.9654C1587.9898,1304.8411 1594.3549,1306.5483 1599.1486,1310.6178L1877.1486,1546.6178C1885.6778,1553.8584 1887.0327,1566.5146 1880.2294,1575.3966L1700.2294,1810.3966C1693.3243,1819.4116 1680.5037,1821.3045 1671.288,1814.6695C1671.288,1814.6695 1605.2699,1766.7513 1580.9496,1734.7305C1532.9399,1671.517 1380.1232,1435.942 1366.851,1415.4615L1358.0413,1405.721L1330.9891,1437.6918C1330.8131,1437.8998 1330.6331,1438.1043 1330.4491,1438.3053L1314.2491,1456.0053C1314.1024,1456.1656 1313.9532,1456.3236 1313.8016,1456.4793L1280.1016,1491.0793C1279.8876,1491.2991 1279.6687,1491.5141 1279.4453,1491.7243L1244.1453,1524.9243C1244.0037,1525.0574 1243.8602,1525.1886 1243.715,1525.3178L1225.615,1541.4178C1225.4616,1541.5543 1225.3061,1541.6885 1225.1487,1541.8205L1188.0487,1572.9205C1187.9224,1573.0264 1187.7948,1573.1308 1187.666,1573.2337L1168.766,1588.3337C1168.6146,1588.4546 1168.4616,1588.5735 1168.307,1588.6902L1130.007,1617.5902C1129.7855,1617.7572 1129.5608,1617.9199 1129.333,1618.0781L1071.133,1658.4781C1070.8744,1658.6576 1070.6118,1658.8312 1070.3455,1658.9989L1012.0455,1695.6989C1011.7893,1695.8602 1011.5297,1696.0158 1011.2668,1696.1659L955.0038,1728.2749C951.42,1730.3201 947.4851,1731.1925 943.644,1731.0137C939.803,1731.1925 935.8681,1730.3202 932.2843,1728.2749L876.0203,1696.1659C875.7574,1696.0159 875.4977,1695.8602 875.2415,1695.6989L816.9415,1658.9989C816.6752,1658.8312 816.4126,1658.6576 816.154,1658.4781L757.954,1618.0781C757.7262,1617.9199 757.5015,1617.7572 757.28,1617.5902L718.98,1588.6902C718.8254,1588.5735 718.6724,1588.4546 718.521,1588.3337L699.621,1573.2337C699.4922,1573.1308 699.3646,1573.0264 699.2383,1572.9205L662.1383,1541.8205C661.9809,1541.6885 661.8254,1541.5543 661.672,1541.4178L643.572,1525.3178C643.4268,1525.1886 643.2833,1525.0574 643.1417,1524.9243L607.8417,1491.7243C607.6183,1491.5141 607.3994,1491.2991 607.1854,1491.0793L573.4854,1456.4793C573.3338,1456.3236 573.1846,1456.1656 573.0379,1456.0053L556.8379,1438.3053C556.6539,1438.1043 556.4739,1437.8998 556.2979,1437.6918L529.2456,1405.7208L520.4372,1415.4597C507.1685,1435.9347 354.348,1671.5158 306.3376,1734.7303C282.0182,1766.7512 215.9989,1814.6696 215.9989,1814.6696C206.7832,1821.3045 193.9626,1819.4116 187.0576,1810.3966L7.0576,1575.3966C0.2543,1566.5146 1.6092,1553.8584 10.1384,1546.6178L288.1384,1310.6178C292.9321,1306.5483 299.2971,1304.8411 305.4839,1305.9654C305.4839,1305.9654 325.953,1309.6815 346.9656,1308.3106C357.6209,1307.6155 368.8355,1306.4281 375.3678,1300.3052C380.1329,1295.839 384.5581,1286.2622 389.243,1275.518C399.6281,1251.7012 408.7038,1221.9506 412.4504,1209.0843L407.8545,1196.7696C407.7538,1196.4998 407.6587,1196.2279 407.5691,1195.9542L400.6691,1174.8542C400.5694,1174.5492 400.4767,1174.242 400.391,1173.9328L394.491,1152.6328C394.4131,1152.3513 394.341,1152.0683 394.2748,1151.7838L389.2748,1130.2838C389.1945,1129.9383 389.1229,1129.5908 389.0602,1129.2417L385.1602,1107.5417C385.0974,1107.1926 385.0435,1106.842 384.9986,1106.4903L382.1986,1084.5903C382.1538,1084.2403 382.1179,1083.8894 382.0909,1083.5376L380.3909,1061.4376C380.3682,1061.1437 380.3518,1060.8493 380.3416,1060.5547L338.8657,1077.9866C332.3821,1080.7116 324.965,1080.0101 319.1072,1076.118C313.2495,1072.2259 309.729,1065.6599 309.729,1058.627L309.729,647.627C309.729,640.6711 313.1734,634.1665 318.9268,630.2573C324.6802,626.348 331.9961,625.5413 338.4631,628.1031L379.729,644.45L379.729,512.4053L30.4105,225.8633C25.5479,221.8746 22.729,215.9163 22.729,209.627L22.729,178.0408L7.5385,162.127C3.8096,158.2205 1.729,153.0275 1.729,147.627L1.729,119.627C1.729,113.0171 4.8411,106.7929 10.129,102.827L46.129,75.827C51.8767,71.5162 59.4294,70.443 66.1504,72.9821L97.6441,84.8797L161.044,13.6635C164.3181,9.9857 168.7806,7.5753 173.6515,6.8537L200.6515,2.8537C209.444,1.5511 218.1043,5.9252 222.2744,13.7747L239.2744,45.7747C242.2435,51.3635 242.5338,57.9932 240.0648,63.8201L196.1238,167.5208L294.2403,249.8389L394.075,227.1492C400.503,225.6883 407.2439,227.3305 412.2798,231.5841L547.7656,346.0235ZM421.729,661.0876L545.4631,710.1031C553.4703,713.275 558.729,721.0144 558.729,729.627L558.729,971.627C558.729,980.0812 553.6594,987.711 545.8657,990.9866L422.004,1043.0444L422.3132,1058.815L423.9266,1079.7887L426.592,1100.636L430.3037,1121.2885L435.0839,1141.8434L440.7385,1162.2573L447.3546,1182.4892L454.8541,1202.5842L463.2255,1222.5023L472.4975,1242.3017L482.4515,1261.8232L493.1953,1281.0087L517.2632,1319.3607L530.036,1337.7997L557.9242,1374.5925L588.0961,1410.2502L603.8,1427.4082L636.9515,1461.445L671.7039,1494.13L689.3558,1509.8314L726.0302,1540.5747L744.5099,1555.3389L782.2458,1583.8132L839.7161,1623.7066L897.2321,1659.9132L943.6439,1686.3996L990.0548,1659.9132L1047.5709,1623.7066L1105.0412,1583.8132L1142.7771,1555.3389L1161.2568,1540.5747L1197.9312,1509.8314L1215.5831,1494.13L1250.3355,1461.445L1283.487,1427.4082L1299.1909,1410.2502L1329.3628,1374.5925L1357.251,1337.7997L1370.0238,1319.3607L1394.0916,1281.0087L1404.8355,1261.8232L1414.7895,1242.3017L1424.0615,1222.5023L1432.4329,1202.5842L1439.9324,1182.4892L1446.5485,1162.2573L1452.2031,1141.8435L1456.9833,1121.2886L1460.695,1100.636L1463.3604,1079.7887L1464.9738,1058.815L1465.283,1043.0444L1341.4213,990.9866C1333.6276,987.711 1328.558,980.0812 1328.558,971.627L1328.558,729.627C1328.558,721.0144 1333.8167,713.275 1341.8239,710.1031L1465.558,661.0876L1465.558,430.0034L943.6435,264.6823L421.729,430.0034L421.729,661.0876ZM680.5901,445.3858C680.7831,445.3176 680.9769,445.2513 681.1717,445.187L937.7055,357.4826C939.6753,356.8091 941.6894,356.5697 943.6435,356.7131C945.5976,356.5697 947.6117,356.8091 949.5815,357.4826L1206.1153,445.187C1206.3101,445.2513 1206.5039,445.3176 1206.6969,445.3858L1379.4105,504.4336C1385.4797,506.5085 1389.558,512.2129 1389.558,518.627L1389.558,637.627C1389.558,643.1582 1386.514,648.2406 1381.6376,650.8512L1290.558,699.611L1290.558,1006.9111C1317.2088,1019.2778 1381.336,1051.0121 1381.336,1051.0121C1387.3401,1053.9856 1390.6442,1060.5804 1389.4311,1067.1697C1389.4311,1067.1697 1364.9749,1200.2483 1282.4296,1318.088L1282.408,1318.1187C1231.2835,1391.0996 1189.2634,1439.0364 1080.046,1513.9944C1075.477,1517.1302 1069.5513,1517.4915 1064.6352,1514.934C1059.7191,1512.3764 1056.6136,1507.3168 1056.5587,1501.7755L1053.6208,1205.0439L943.6435,1098.5748L833.6662,1205.0439L830.7283,1501.7755C830.6734,1507.3168 827.5679,1512.3765 822.6517,1514.934C817.7356,1517.4915 811.8099,1517.1302 807.2409,1513.9944C698.0246,1439.0364 656.0045,1391.0996 604.88,1318.1187L604.8584,1318.0879C522.312,1200.2483 497.8569,1067.1696 497.8569,1067.1696C496.6439,1060.5803 499.9479,1053.9856 505.9519,1051.0121C505.9519,1051.0121 570.0784,1019.2778 596.729,1006.9111L596.729,699.611L505.6494,650.8512C500.773,648.2406 497.729,643.1582 497.729,637.627L497.729,518.627C497.729,512.2129 501.8073,506.5085 507.8765,504.4336L680.5901,445.3858ZM614.5066,1278.396L670.729,1151.4539L670.729,506.2609C670.7271,506.0649 670.7271,505.8691 670.729,505.6735L670.729,480.462L527.729,529.3512L527.729,628.643L618.8086,677.4028C623.685,680.0134 626.729,685.0958 626.729,690.627L626.729,1016.627C626.729,1022.7274 623.0344,1028.2202 617.3841,1030.5201C606.3169,1035.025 552.6495,1061.4099 529.7044,1072.7355C536.6862,1103.2269 560.3237,1192.2843 614.5066,1278.396ZM1216.558,480.462L1216.558,505.6735C1216.5599,505.8691 1216.5599,506.0649 1216.558,506.2609L1216.558,1151.4539L1272.7813,1278.396C1326.9635,1192.2843 1350.6015,1103.2268 1357.5835,1072.7354C1334.6381,1061.41 1280.9701,1035.025 1269.9029,1030.5201C1264.2526,1028.2202 1260.558,1022.7274 1260.558,1016.627L1260.558,690.627C1260.558,685.0958 1263.602,680.0134 1268.4784,677.4028L1359.558,628.643L1359.558,529.3512L1216.558,480.462ZM943.6435,1062.7832C947.4308,1062.7613 951.229,1064.1631 954.1623,1067.0029L1078.9913,1187.8499C1081.8731,1190.6398 1083.5176,1194.4677 1083.5573,1198.4785L1086.2753,1473.0077C1171.2897,1412.1577 1209.6632,1368.8879 1252.9882,1307.7877L1187.843,1160.7014C1186.9957,1158.7884 1186.558,1156.7193 1186.558,1154.627L1186.558,516.8071L943.644,436.5841L700.729,516.8071L700.729,1154.627C700.729,1156.7192 700.2913,1158.7883 699.444,1160.7014L634.2998,1307.7876C677.6248,1368.8879 715.9983,1412.1577 801.0116,1473.0074L803.7297,1198.4785C803.7694,1194.4677 805.4139,1190.6398 808.2957,1187.8499L933.1247,1067.0029C936.058,1064.1631 939.8562,1062.7613 943.6435,1062.7832Z"/>
</svg>
